<?xml version="1.0" encoding="iso-8859-1"?>
<!-- Generator: Adobe Illustrator 19.0.0, SVG Export Plug-In . SVG Version: 6.00 Build 0)  -->
<svg version="1.1" id="Layer_1" xmlns="http://www.w3.org/2000/svg" xmlns:xlink="http://www.w3.org/1999/xlink" x="0px" y="0px"
	 viewBox="0 0 512 512" style="enable-background:new 0 0 512 512;" xml:space="preserve">
<path style="fill:#25BBCC;" d="M128,178.102l87.149,119.83h32.681C247.83,231.753,194.179,178.102,128,178.102z"/>
<path style="fill:#FF9269;" d="M129.209,8.172v137.26c37.899,0,68.63-30.731,68.63-68.63
	C197.839,38.892,167.108,8.172,129.209,8.172z"/>
<path style="fill:#78E3EC;" d="M128,178.102c48.128,0,87.149,53.651,87.149,119.83H8.17C8.17,231.753,61.821,178.102,128,178.102z"
	/>
<path style="fill:#FFB082;" d="M129.209,8.172c19.848,0,35.949,30.72,35.949,68.63c0,37.899-16.101,68.63-35.949,68.63
	c-37.91,0-68.63-30.731-68.63-68.63C60.579,38.892,91.299,8.172,129.209,8.172z"/>
<path style="fill:#25BBCC;" d="M384,178.102l87.149,119.83h32.681C503.83,231.753,450.179,178.102,384,178.102z"/>
<path style="fill:#FF9269;" d="M385.209,8.172v137.26c37.899,0,68.63-30.731,68.63-68.63
	C453.839,38.892,423.108,8.172,385.209,8.172z"/>
<path style="fill:#78E3EC;" d="M384,178.102c48.128,0,87.149,53.651,87.149,119.83H264.17
	C264.17,231.753,317.821,178.102,384,178.102z"/>
<path style="fill:#FFB082;" d="M385.209,8.172c19.848,0,35.949,30.72,35.949,68.63c0,37.899-16.101,68.63-35.949,68.63
	c-37.91,0-68.63-30.731-68.63-68.63C316.579,38.892,347.299,8.172,385.209,8.172z"/>
<path style="fill:#FF4719;" d="M256,178.102l87.149,119.83h32.681C375.83,231.753,322.179,178.102,256,178.102z"/>
<path style="fill:#FFDB8A;" d="M257.209,8.172v137.26c37.899,0,68.63-30.731,68.63-68.63
	C325.839,38.892,295.108,8.172,257.209,8.172z"/>
<path style="fill:#FF754F;" d="M256,178.102c48.128,0,87.149,53.651,87.149,119.83H136.17
	C136.17,231.753,189.821,178.102,256,178.102z"/>
<path style="fill:#FFEAB5;" d="M257.209,8.172c19.848,0,35.949,30.72,35.949,68.63c0,37.899-16.101,68.63-35.949,68.63
	c-37.91,0-68.63-30.731-68.63-68.63C188.579,38.892,219.299,8.172,257.209,8.172z"/>
<g>
	<circle style="fill:#78E3EC;" cx="69.251" cy="487.489" r="16.34"/>
	<circle style="fill:#78E3EC;" cx="134.612" cy="487.489" r="16.34"/>
	<circle style="fill:#78E3EC;" cx="290.74" cy="487.489" r="16.34"/>
</g>
<path d="M257.204,153.6c42.348,0,76.8-34.452,76.8-76.8S299.552,0,257.204,0s-76.8,34.452-76.8,76.8S214.856,153.6,257.204,153.6z
	 M257.204,16.34c33.338,0,60.46,27.122,60.46,60.46s-27.122,60.46-60.46,60.46s-60.46-27.122-60.46-60.46
	S223.867,16.34,257.204,16.34z"/>
<path d="M257.203,104.758c9.331,0,17.74-5.684,20.923-14.144c1.589-4.223-0.547-8.935-4.77-10.524
	c-4.221-1.588-8.934,0.546-10.523,4.769c-0.801,2.129-3.063,3.558-5.63,3.558c-2.565,0-4.829-1.43-5.63-3.559
	c-1.589-4.222-6.303-6.358-10.525-4.768c-4.222,1.589-6.358,6.302-4.768,10.524C239.465,99.075,247.873,104.758,257.203,104.758z"/>
<path d="M385.203,104.758c9.331,0,17.74-5.684,20.923-14.144c1.589-4.223-0.547-8.935-4.77-10.524
	c-4.222-1.588-8.935,0.546-10.523,4.769c-0.801,2.129-3.063,3.558-5.63,3.558c-2.565,0-4.829-1.43-5.63-3.559
	c-1.59-4.222-6.302-6.358-10.525-4.768c-4.222,1.589-6.358,6.302-4.768,10.524C367.465,99.075,375.873,104.758,385.203,104.758z"/>
<path d="M384,169.932c-10.593,0-21.14,1.304-31.351,3.876c-4.376,1.102-7.029,5.543-5.926,9.919c1.102,4.376,5.542,7.03,9.918,5.927
	c8.907-2.244,18.112-3.381,27.359-3.381c58.822,0,107.167,45.719,111.364,103.489h-86.854c-4.513,0-8.17,3.658-8.17,8.17
	c0,4.512,3.657,8.17,8.17,8.17h95.319c4.513,0,8.17-3.658,8.17-8.17C512,227.352,454.58,169.932,384,169.932z"/>
<path d="M76.42,464.052v-65.855l33.785-63.563c0.627-1.181,0.955-2.497,0.955-3.835v-32.867c0-4.512-3.657-8.17-8.17-8.17H16.636
	C20.833,231.992,69.177,186.272,128,186.272c9.248,0,18.453,1.137,27.359,3.381c4.377,1.1,8.816-1.551,9.918-5.927
	s-1.551-8.816-5.926-9.919c-10.211-2.572-20.759-3.876-31.351-3.876c-70.58,0-128,57.42-128,128c0,4.512,3.657,8.17,8.17,8.17h86.65
	v22.66l-33.785,63.564c-0.627,1.181-0.955,2.497-0.955,3.835v68.605c-8.985,3.638-15.341,12.45-15.341,22.724
	c0,13.516,10.996,24.511,24.511,24.511s24.511-10.995,24.511-24.511C93.759,476.468,86.447,467.126,76.42,464.052z M69.249,495.66
	c-4.506,0-8.17-3.665-8.17-8.17s3.665-8.17,8.17-8.17c4.506,0,8.17,3.665,8.17,8.17S73.754,495.66,69.249,495.66z"/>
<path d="M298.911,464.384v-68.225c0-1.338-0.329-2.654-0.955-3.835l-33.785-63.563v-22.661h111.66c4.513,0,8.17-3.658,8.17-8.17
	c0-70.58-57.42-128-128-128s-128,57.42-128,128c0,4.512,3.657,8.17,8.17,8.17h25.01v22.661l-33.784,63.563
	c-0.627,1.181-0.955,2.497-0.955,3.835v68.225c-9.509,3.373-16.34,12.454-16.34,23.105c0,13.516,10.996,24.511,24.511,24.511
	s24.511-10.995,24.511-24.511c0-10.651-6.831-19.733-16.34-23.105v-66.187l33.784-63.563c0.627-1.181,0.955-2.497,0.955-3.835
	v-24.697h70.31v24.697c0,1.338,0.329,2.654,0.955,3.835l33.785,63.563v66.187c-9.509,3.373-16.34,12.454-16.34,23.105
	c0,13.516,10.996,24.511,24.511,24.511s24.511-10.995,24.511-24.511C315.251,476.839,308.42,467.757,298.911,464.384z
	 M134.61,495.66c-4.506,0-8.17-3.665-8.17-8.17s3.665-8.17,8.17-8.17s8.17,3.665,8.17,8.17S139.116,495.66,134.61,495.66z
	 M256,186.272c58.822,0,107.167,45.719,111.364,103.489H144.636C148.833,231.99,197.178,186.272,256,186.272z M290.741,495.66
	c-4.506,0-8.17-3.665-8.17-8.17s3.665-8.17,8.17-8.17s8.17,3.665,8.17,8.17S295.245,495.66,290.741,495.66z"/>
<path d="M459.092,387.99h-135.67c-4.513,0-8.17,3.658-8.17,8.17c0,4.512,3.657,8.17,8.17,8.17h135.67c4.513,0,8.17-3.658,8.17-8.17
	C467.262,391.648,463.604,387.99,459.092,387.99z"/>
<path d="M459.092,420.671h-135.67c-4.513,0-8.17,3.658-8.17,8.17c0,4.512,3.657,8.17,8.17,8.17h135.67c4.513,0,8.17-3.658,8.17-8.17
	C467.262,424.329,463.604,420.671,459.092,420.671z"/>
<path d="M459.092,453.352h-67.836c-4.513,0-8.17,3.658-8.17,8.17c0,4.512,3.657,8.17,8.17,8.17h67.836c4.513,0,8.17-3.658,8.17-8.17
	C467.262,457.01,463.604,453.352,459.092,453.352z"/>
<path d="M347.926,29.221c10.738-8.426,23.628-12.881,37.278-12.881c33.338,0,60.46,27.122,60.46,60.46s-27.122,60.46-60.46,60.46
	c-13.649,0-26.539-4.453-37.278-12.881c-3.549-2.787-8.685-2.167-11.471,1.385c-2.785,3.549-2.166,8.685,1.385,11.471
	c13.643,10.706,30.023,16.365,47.364,16.365c42.348,0,76.8-34.452,76.8-76.8S427.552,0,385.204,0
	c-17.344,0-33.722,5.659-47.365,16.367c-3.55,2.785-4.169,7.921-1.385,11.471C339.24,31.388,344.378,32.007,347.926,29.221z"/>
<path d="M132.426,84.859c-0.801,2.129-3.064,3.559-5.63,3.559c-2.567,0-4.829-1.43-5.63-3.558
	c-1.588-4.223-6.303-6.356-10.523-4.769c-4.223,1.588-6.36,6.301-4.77,10.524c3.183,8.46,11.592,14.144,20.923,14.144
	c9.329,0,17.738-5.683,20.923-14.143c1.589-4.222-0.546-8.935-4.768-10.524C138.728,78.503,134.017,80.635,132.426,84.859z"/>
<path d="M126.797,153.6c17.342,0,33.72-5.659,47.364-16.365c3.55-2.785,4.169-7.922,1.385-11.471
	c-2.788-3.551-7.923-4.169-11.471-1.385c-10.738,8.426-23.628,12.881-37.277,12.881c-33.338,0-60.46-27.122-60.46-60.46
	s27.121-60.46,60.458-60.46c13.649,0,26.539,4.454,37.278,12.881c3.548,2.785,8.685,2.167,11.471-1.383
	c2.786-3.55,2.166-8.685-1.385-11.471C160.519,5.659,144.139,0,126.797,0c-42.348,0-76.8,34.452-76.8,76.8
	S84.448,153.6,126.797,153.6z"/>
<g>
</g>
<g>
</g>
<g>
</g>
<g>
</g>
<g>
</g>
<g>
</g>
<g>
</g>
<g>
</g>
<g>
</g>
<g>
</g>
<g>
</g>
<g>
</g>
<g>
</g>
<g>
</g>
<g>
</g>
</svg>
