<svg xmlns="http://www.w3.org/2000/svg" viewBox="0 0 24 24" width="18" height="18"><g fill="none" fill-rule="evenodd"><path d="M0 0h24v24H0z"></path><path d="M18.789 3.94l1.414 1.414-1.785 1.784a10.958 10.958 0 012.406 2.488l-1.638 1.147a8.943 8.943 0 00-2.2-2.203l-8.07 8.072c.969.37 2.01.567 3.084.567 2.886 0 5.538-1.425 7.184-3.782l1.64 1.146c-2.015 2.884-5.275 4.636-8.824 4.636a10.65 10.65 0 01-4.607-1.045l-2.04 2.039-1.414-1.414L5.63 17.1a10.956 10.956 0 01-2.446-2.517l1.639-1.147a8.94 8.94 0 002.24 2.23l2.025-2.025a3.001 3.001 0 014.053-4.054l2.003-2.001A8.654 8.654 0 0012.007 7C9.121 7 6.47 8.425 4.823 10.782l-1.64-1.146C5.198 6.752 8.458 5 12.007 5c1.645 0 3.228.376 4.654 1.067l2.128-2.128z" fill="currentColor" fill-rule="nonzero"></path></g></svg>