<svg xmlns="http://www.w3.org/2000/svg" viewBox="0 0 24 24" width="18" height="18"><g fill="none" fill-rule="evenodd"><path d="M0 0h24v24H0z"></path><path d="M19.184 13.427l1.64 1.146c-2.015 2.884-5.275 4.636-8.824 4.636-3.545 0-6.801-1.747-8.817-4.626l1.639-1.147c1.646 2.352 4.295 3.773 7.178 3.773 2.886 0 5.538-1.425 7.184-3.782zM12 9a3 3 0 110 6 3 3 0 010-6zm0 2a1 1 0 100 2 1 1 0 000-2zm.007-6c3.545 0 6.801 1.747 8.817 4.626l-1.638 1.147C17.539 8.421 14.89 7 12.007 7 9.121 7 6.47 8.425 4.823 10.782l-1.64-1.146C5.198 6.752 8.458 5 12.007 5z" fill="currentColor" fill-rule="nonzero"></path></g></svg>