<svg xmlns="http://www.w3.org/2000/svg" xmlns:xlink="http://www.w3.org/1999/xlink" version="1.1" width="256" height="256" viewBox="0 0 256 256" xml:space="preserve">
<desc>Created with Fabric.js 1.7.22</desc>
<defs>
</defs>
<g transform="translate(128 128) scale(0.72 0.72)" style="">
	<g style="stroke: none; stroke-width: 0; stroke-dasharray: none; stroke-linecap: butt; stroke-linejoin: miter; stroke-miterlimit: 10; fill: none; fill-rule: nonzero; opacity: 1;" transform="translate(-175.05 -175.05000000000004) scale(3.89 3.89)" >
	<path d="M 2.151 15.847 c -0.688 0 -1.248 -0.604 -1.137 -1.282 c 0.614 -3.755 3.879 -6.621 7.815 -6.621 h 5.729 l 6.117 7.903 H 2.151 z" style="stroke: none; stroke-width: 1; stroke-dasharray: none; stroke-linecap: butt; stroke-linejoin: miter; stroke-miterlimit: 10; fill: rgb(67,138,232); fill-rule: nonzero; opacity: 1;" transform=" matrix(1 0 0 1 0 0) " stroke-linecap="round" />
	<path d="M 66.537 74.153 V 58.846 V 15.847 c 0 -4.365 -3.546 -7.903 -7.919 -7.903 h 0 h 0 H 8.83 h 0 h 0 c 4.374 0 7.919 3.538 7.919 7.903 v 42.999 v 15.307 c 0 4.365 3.546 7.903 7.919 7.903 h 0 L 66.537 74.153 z" style="stroke: none; stroke-width: 1; stroke-dasharray: none; stroke-linecap: butt; stroke-linejoin: miter; stroke-miterlimit: 10; fill: rgb(128,180,251); fill-rule: nonzero; opacity: 1;" transform=" matrix(1 0 0 1 0 0) " stroke-linecap="round" />
	<path d="M 66.537 74.153 H 33.934 c -0.739 0 -1.332 0.554 -1.451 1.282 c -0.614 3.755 -3.879 6.621 -7.815 6.621 h 49.789 h 0 c 3.967 0 7.253 -2.911 7.829 -6.709 c 0.096 -0.631 -0.421 -1.194 -1.061 -1.194 L 66.537 74.153" style="stroke: none; stroke-width: 1; stroke-dasharray: none; stroke-linecap: butt; stroke-linejoin: miter; stroke-miterlimit: 10; fill: rgb(67,138,232); fill-rule: nonzero; opacity: 1;" transform=" matrix(1 0 0 1 0 0) " stroke-linecap="round" />
	<path d="M 16.806 59.846 c -0.552 0 -1 -0.447 -1 -1 V 16.847 H 1 c -0.552 0 -1 -0.448 -1 -1 c 0 -4.909 3.994 -8.902 8.903 -8.902 s 8.903 3.994 8.903 8.902 v 42.999 C 17.806 59.398 17.358 59.846 16.806 59.846 z M 2.072 14.847 h 13.661 c -0.486 -3.333 -3.364 -5.902 -6.831 -5.902 S 2.558 11.513 2.072 14.847 z" style="stroke: none; stroke-width: 1; stroke-dasharray: none; stroke-linecap: butt; stroke-linejoin: miter; stroke-miterlimit: 10; fill: rgb(0,0,0); fill-rule: nonzero; opacity: 1;" transform=" matrix(1 0 0 1 0 0) " stroke-linecap="round" />
	<path d="M 66.492 59.846 c -0.553 0 -1 -0.447 -1 -1 V 15.847 c 0 -3.806 -3.097 -6.902 -6.903 -6.902 c -0.553 0 -1 -0.448 -1 -1 s 0.447 -1 1 -1 c 4.909 0 8.903 3.994 8.903 8.902 v 42.999 C 67.492 59.398 67.045 59.846 66.492 59.846 z" style="stroke: none; stroke-width: 1; stroke-dasharray: none; stroke-linecap: butt; stroke-linejoin: miter; stroke-miterlimit: 10; fill: rgb(0,0,0); fill-rule: nonzero; opacity: 1;" transform=" matrix(1 0 0 1 0 0) " stroke-linecap="round" />
	<path d="M 58.589 8.944 H 8.903 c -0.552 0 -1 -0.448 -1 -1 s 0.448 -1 1 -1 h 49.686 c 0.553 0 1 0.448 1 1 S 59.142 8.944 58.589 8.944 z" style="stroke: none; stroke-width: 1; stroke-dasharray: none; stroke-linecap: butt; stroke-linejoin: miter; stroke-miterlimit: 10; fill: rgb(0,0,0); fill-rule: nonzero; opacity: 1;" transform=" matrix(1 0 0 1 0 0) " stroke-linecap="round" />
	<path d="M 74.395 83.056 c -0.553 0 -1 -0.447 -1 -1 s 0.447 -1 1 -1 c 3.467 0 6.344 -2.568 6.83 -5.902 H 66.492 c -0.553 0 -1 -0.447 -1 -1 s 0.447 -1 1 -1 h 15.805 c 0.553 0 1 0.447 1 1 C 83.297 79.063 79.304 83.056 74.395 83.056 z" style="stroke: none; stroke-width: 1; stroke-dasharray: none; stroke-linecap: butt; stroke-linejoin: miter; stroke-miterlimit: 10; fill: rgb(0,0,0); fill-rule: nonzero; opacity: 1;" transform=" matrix(1 0 0 1 0 0) " stroke-linecap="round" />
	<path d="M 66.492 75.153 c -0.553 0 -1 -0.447 -1 -1 V 58.846 c 0 -0.553 0.447 -1 1 -1 s 1 0.447 1 1 v 15.308 C 67.492 74.706 67.045 75.153 66.492 75.153 z" style="stroke: none; stroke-width: 1; stroke-dasharray: none; stroke-linecap: butt; stroke-linejoin: miter; stroke-miterlimit: 10; fill: rgb(0,0,0); fill-rule: nonzero; opacity: 1;" transform=" matrix(1 0 0 1 0 0) " stroke-linecap="round" />
	<path d="M 24.708 83.056 c -4.909 0 -8.903 -3.993 -8.903 -8.902 V 58.846 c 0 -0.553 0.448 -1 1 -1 s 1 0.447 1 1 v 15.308 c 0 3.806 3.097 6.902 6.903 6.902 c 0.552 0 1 0.447 1 1 S 25.261 83.056 24.708 83.056 z" style="stroke: none; stroke-width: 1; stroke-dasharray: none; stroke-linecap: butt; stroke-linejoin: miter; stroke-miterlimit: 10; fill: rgb(0,0,0); fill-rule: nonzero; opacity: 1;" transform=" matrix(1 0 0 1 0 0) " stroke-linecap="round" />
	<path d="M 74.395 83.056 H 24.708 c -0.552 0 -1 -0.447 -1 -1 s 0.448 -1 1 -1 h 49.686 c 0.553 0 1 0.447 1 1 S 74.947 83.056 74.395 83.056 z" style="stroke: none; stroke-width: 1; stroke-dasharray: none; stroke-linecap: butt; stroke-linejoin: miter; stroke-miterlimit: 10; fill: rgb(0,0,0); fill-rule: nonzero; opacity: 1;" transform=" matrix(1 0 0 1 0 0) " stroke-linecap="round" />
	<path d="M 24.708 83.056 c -0.552 0 -1 -0.447 -1 -1 s 0.448 -1 1 -1 c 3.806 0 6.903 -3.097 6.903 -6.902 c 0 -0.553 0.448 -1 1 -1 h 33.881 c 0.553 0 1 0.447 1 1 s -0.447 1 -1 1 H 33.556 C 33.057 79.593 29.28 83.056 24.708 83.056 z" style="stroke: none; stroke-width: 1; stroke-dasharray: none; stroke-linecap: butt; stroke-linejoin: miter; stroke-miterlimit: 10; fill: rgb(0,0,0); fill-rule: nonzero; opacity: 1;" transform=" matrix(1 0 0 1 0 0) " stroke-linecap="round" />
	<path d="M 46.449 53.351 H 27.373 c -0.552 0 -1 -0.447 -1 -1 s 0.448 -1 1 -1 h 19.077 c 0.553 0 1 0.447 1 1 S 47.002 53.351 46.449 53.351 z" style="stroke: none; stroke-width: 1; stroke-dasharray: none; stroke-linecap: butt; stroke-linejoin: miter; stroke-miterlimit: 10; fill: rgb(0,0,0); fill-rule: nonzero; opacity: 1;" transform=" matrix(1 0 0 1 0 0) " stroke-linecap="round" />
	<path d="M 43.678 64.817 H 27.373 c -0.552 0 -1 -0.447 -1 -1 s 0.448 -1 1 -1 h 16.305 c 0.552 0 1 0.447 1 1 S 44.23 64.817 43.678 64.817 z" style="stroke: none; stroke-width: 1; stroke-dasharray: none; stroke-linecap: butt; stroke-linejoin: miter; stroke-miterlimit: 10; fill: rgb(0,0,0); fill-rule: nonzero; opacity: 1;" transform=" matrix(1 0 0 1 0 0) " stroke-linecap="round" />
	<path d="M 32.388 23.584 c 3.667 -0.528 6.908 -1.842 9.604 -4.157 c 2.697 2.315 5.937 3.629 9.604 4.157 v 10.21 c 0 5.17 -4.008 9.569 -9.604 11.206 c -5.597 -1.636 -9.604 -6.036 -9.604 -11.206 V 23.584 z" style="stroke: none; stroke-width: 1; stroke-dasharray: none; stroke-linecap: butt; stroke-linejoin: miter; stroke-miterlimit: 10; fill: rgb(255,194,80); fill-rule: nonzero; opacity: 1;" transform=" matrix(1 0 0 1 0 0) " stroke-linecap="round" />
	<path d="M 41.992 46 c -0.095 0 -0.189 -0.013 -0.281 -0.04 c -6.175 -1.806 -10.323 -6.695 -10.323 -12.166 V 23.584 c 0 -0.497 0.365 -0.919 0.857 -0.99 c 3.657 -0.527 6.632 -1.811 9.095 -3.926 c 0.375 -0.321 0.928 -0.321 1.303 0 c 2.463 2.115 5.439 3.399 9.095 3.926 c 0.492 0.071 0.857 0.493 0.857 0.99 v 10.209 c 0 5.471 -4.148 10.36 -10.323 12.166 C 42.181 45.987 42.086 46 41.992 46 z M 33.388 24.435 v 9.359 c 0 4.493 3.445 8.546 8.604 10.161 c 5.159 -1.615 8.604 -5.668 8.604 -10.161 v -9.359 c -3.314 -0.599 -6.202 -1.846 -8.604 -3.716 C 39.59 22.589 36.702 23.836 33.388 24.435 z" style="stroke: none; stroke-width: 1; stroke-dasharray: none; stroke-linecap: butt; stroke-linejoin: miter; stroke-miterlimit: 10; fill: rgb(0,0,0); fill-rule: nonzero; opacity: 1;" transform=" matrix(1 0 0 1 0 0) " stroke-linecap="round" />
	<path d="M 40.813 36.52 c -0.003 0 -0.005 0 -0.008 0 c -0.291 -0.002 -0.566 -0.131 -0.754 -0.353 l -2.805 -3.306 c -0.357 -0.421 -0.306 -1.052 0.116 -1.41 c 0.422 -0.356 1.052 -0.305 1.41 0.116 l 2.055 2.422 l 5.121 -5.835 c 0.365 -0.416 0.997 -0.456 1.411 -0.092 c 0.415 0.364 0.457 0.996 0.093 1.411 l -5.885 6.706 C 41.375 36.396 41.101 36.52 40.813 36.52 z" style="stroke: none; stroke-width: 1; stroke-dasharray: none; stroke-linecap: butt; stroke-linejoin: miter; stroke-miterlimit: 10; fill: rgb(0,0,0); fill-rule: nonzero; opacity: 1;" transform=" matrix(1 0 0 1 0 0) " stroke-linecap="round" />
	<path d="M 54.495 53.585 l -4.02 10.058 l 10.058 -4.02 l 27.216 -27.216 c 1.667 -1.667 1.667 -4.371 0 -6.038 c -1.667 -1.667 -4.371 -1.667 -6.038 0 L 54.495 53.585 z" style="stroke: none; stroke-width: 1; stroke-dasharray: none; stroke-linecap: butt; stroke-linejoin: miter; stroke-miterlimit: 10; fill: rgb(204,204,204); fill-rule: nonzero; opacity: 1;" transform=" matrix(1 0 0 1 0 0) " stroke-linecap="round" />
	<polygon points="54.49,53.59 50.48,63.64 60.53,59.62 " style="stroke: none; stroke-width: 1; stroke-dasharray: none; stroke-linecap: butt; stroke-linejoin: miter; stroke-miterlimit: 10; fill: rgb(204,204,204); fill-rule: nonzero; opacity: 1;" transform="  matrix(1 0 0 1 0 0) "/>
	<path d="M 81.711 26.369 c 1.667 -1.667 4.371 -1.667 6.038 0 c 1.667 1.667 1.667 4.371 0 6.038 l -2.212 2.212 l -6.038 -6.038 L 81.711 26.369 z" style="stroke: none; stroke-width: 1; stroke-dasharray: none; stroke-linecap: butt; stroke-linejoin: miter; stroke-miterlimit: 10; fill: rgb(204,204,204); fill-rule: nonzero; opacity: 1;" transform=" matrix(1 0 0 1 0 0) " stroke-linecap="round" />
	<path d="M 50.476 64.644 c -0.26 0 -0.516 -0.102 -0.707 -0.293 c -0.283 -0.282 -0.37 -0.707 -0.222 -1.078 l 4.02 -10.059 c 0.051 -0.126 0.126 -0.24 0.222 -0.336 l 27.216 -27.216 c 0.995 -0.996 2.318 -1.543 3.726 -1.543 c 1.408 0 2.731 0.548 3.727 1.543 C 89.452 26.657 90 27.98 90 29.388 s -0.548 2.731 -1.544 3.726 L 61.24 60.33 c -0.096 0.096 -0.21 0.171 -0.336 0.222 l -10.058 4.021 C 50.727 64.62 50.601 64.644 50.476 64.644 z M 55.348 54.146 L 52.27 61.85 l 7.702 -3.079 l 27.07 -27.07 C 87.66 31.083 88 30.261 88 29.388 s -0.34 -1.694 -0.958 -2.312 c -1.234 -1.235 -3.389 -1.236 -4.624 0 L 55.348 54.146 z" style="stroke: none; stroke-width: 1; stroke-dasharray: none; stroke-linecap: butt; stroke-linejoin: miter; stroke-miterlimit: 10; fill: rgb(0,0,0); fill-rule: nonzero; opacity: 1;" transform=" matrix(1 0 0 1 0 0) " stroke-linecap="round" />
	<path d="M 50.476 64.644 c -0.26 0 -0.516 -0.102 -0.707 -0.293 c -0.283 -0.282 -0.37 -0.707 -0.222 -1.078 l 4.02 -10.059 c 0.125 -0.313 0.398 -0.541 0.728 -0.608 c 0.327 -0.065 0.67 0.035 0.908 0.272 l 6.038 6.038 c 0.237 0.237 0.34 0.579 0.272 0.908 s -0.296 0.603 -0.608 0.728 l -10.058 4.021 C 50.727 64.62 50.601 64.644 50.476 64.644 z M 54.86 55.365 L 52.27 61.85 l 6.484 -2.592 L 54.86 55.365 z" style="stroke: none; stroke-width: 1; stroke-dasharray: none; stroke-linecap: butt; stroke-linejoin: miter; stroke-miterlimit: 10; fill: rgb(0,0,0); fill-rule: nonzero; opacity: 1;" transform=" matrix(1 0 0 1 0 0) " stroke-linecap="round" />
	<path d="M 85.538 35.619 c -0.265 0 -0.52 -0.105 -0.707 -0.293 l -6.039 -6.039 c -0.188 -0.188 -0.293 -0.442 -0.293 -0.707 s 0.105 -0.52 0.293 -0.707 l 2.212 -2.211 c 0.995 -0.996 2.318 -1.543 3.726 -1.543 c 1.408 0 2.731 0.548 3.727 1.543 C 89.452 26.657 90 27.98 90 29.388 s -0.548 2.731 -1.544 3.726 l -2.211 2.212 C 86.058 35.514 85.804 35.619 85.538 35.619 z M 80.913 28.581 l 4.625 4.624 l 1.504 -1.504 C 87.66 31.083 88 30.261 88 29.388 s -0.34 -1.694 -0.958 -2.312 c -1.234 -1.235 -3.389 -1.236 -4.624 0 l 0 0 L 80.913 28.581 z M 81.711 26.369 h 0.01 H 81.711 z" style="stroke: none; stroke-width: 1; stroke-dasharray: none; stroke-linecap: butt; stroke-linejoin: miter; stroke-miterlimit: 10; fill: rgb(0,0,0); fill-rule: nonzero; opacity: 1;" transform=" matrix(1 0 0 1 0 0) " stroke-linecap="round" />
	<path d="M 75.724 50.936 c -0.256 0 -0.512 -0.098 -0.707 -0.293 c -0.391 -0.391 -0.391 -1.023 0 -1.414 l 9.814 -9.814 c 1.127 -1.127 1.127 -2.961 0 -4.088 c -0.391 -0.391 -0.391 -1.023 0 -1.414 s 1.023 -0.391 1.414 0 c 1.907 1.907 1.907 5.01 0 6.917 l -9.814 9.814 C 76.235 50.838 75.979 50.936 75.724 50.936 z" style="stroke: none; stroke-width: 1; stroke-dasharray: none; stroke-linecap: butt; stroke-linejoin: miter; stroke-miterlimit: 10; fill: rgb(0,0,0); fill-rule: nonzero; opacity: 1;" transform=" matrix(1 0 0 1 0 0) " stroke-linecap="round" />
</g>
</g>
</svg>