<?xml version="1.0" encoding="utf-8"?>
<!-- Generator: Adobe Illustrator 24.0.2, SVG Export Plug-In . SVG Version: 6.00 Build 0)  -->
<svg version="1.1" xmlns="http://www.w3.org/2000/svg" xmlns:xlink="http://www.w3.org/1999/xlink" x="0px" y="0px"
	 viewBox="0 0 512 512" style="enable-background:new 0 0 512 512;" xml:space="preserve">
<style type="text/css">
	.st0{fill:#126A75;}
	.st1{fill:#FFFFFF;stroke:#126A75;stroke-width:10;stroke-linecap:round;stroke-linejoin:round;stroke-miterlimit:10;}
	.st2{fill:none;stroke:#126A75;stroke-width:10;stroke-linecap:round;stroke-linejoin:round;stroke-miterlimit:10;}
</style>
<g id="Layer_1">
</g>
<g id="Layer_2">
	<g id="Layer_2_background">
		<g>
			<circle class="st0" cx="256.0887" cy="255.7101" r="239.3491"/>
		</g>
	</g>
</g>
<g id="Layer_4">
	<path class="st1" d="M260.9914,101.0869h86.3623c3.1249,0,5.6582,2.5333,5.6582,5.6582v37.2574c0,0.006,0.003,0.0117,0.008,0.015
		l56.4494,37.4409c0.005,0.0033,0.0081,0.009,0.0081,0.015v170.233c0,0.0099-0.0081,0.018-0.018,0.018H301.254
		c-0.0053,0-0.0103,0.0023-0.0138,0.0064l-41.25,82.0989l-40.3489-82.0989c-0.0034-0.0041-0.0085-0.0064-0.0138-0.0064H111.4223
		c-0.0099,0-0.018-0.0081-0.018-0.018v-170.233c0-0.006,0.003-0.0117,0.008-0.015l56.4494-37.4409
		c0.005-0.0033,0.0081-0.009,0.0081-0.015v-37.2499c0-3.1291,2.5366-5.6658,5.6658-5.6658h86.3547"/>
	<polyline class="st2" points="173.5355,101.0869 237.0111,141.9955 207.9141,197.8848 167.8697,144.0025 	"/>
	<polyline class="st2" points="347.5653,101.0869 284.0897,141.9955 313.1867,197.8848 353.231,144.0025 	"/>
	<polyline class="st2" points="221.4893,171.8096 240.6602,196.2523 219.6275,351.7244 	"/>
	<polyline class="st2" points="299.7293,171.8096 280.5584,196.2523 301.5911,351.7244 	"/>
	<line class="st2" x1="240.6602" y1="196.2523" x2="280.5584" y2="196.2523"/>
	<line class="st2" x1="237.0111" y1="141.9955" x2="284.0897" y2="141.9955"/>
</g>
</svg>
