<?xml version="1.0" encoding="utf-8"?>
<!-- Generator: Adobe Illustrator 19.2.1, SVG Export Plug-In . SVG Version: 6.00 Build 0)  -->
<svg version="1.1" id="Layer_1" xmlns="http://www.w3.org/2000/svg" xmlns:xlink="http://www.w3.org/1999/xlink" x="0px" y="0px"
	 viewBox="0 0 700 700" style="enable-background:new 0 0 700 700;" xml:space="preserve">
<style type="text/css">
	.st0{fill:#F5CFBA;}
	.st1{fill:#FFFFFF;}
	.st2{fill:#5C5409;}
	.st3{fill:#6E6510;}
	.st4{fill:#383303;}
	.st5{fill:#F27638;}
	.st6{fill:#E86727;}
	.st7{fill:#333333;}
	.st8{fill:#877C1B;}
	.st9{fill:#FF9966;}
	.st10{fill:#FA8950;}
	.st11{fill:#9E922B;}
	.st12{fill:#FFA87D;}
</style>
<g id="_3019079403536">
	<circle class="st0" cx="350" cy="366.4" r="323.6"/>
	<g>
		<path class="st1" d="M252.1,533.1l-8.6,21.2c-11.2,24.8-12.3,53-3.3,78.7l-4.8,33.1c37.7,15.4,78.9,23.9,122.1,23.9
			s84.4-8.5,122.1-23.9l-4.8-33.1c9.1-25.7,7.9-53.9-3.3-78.7l-8.6-21.2l-105.5,31.4L252.1,533.1L252.1,533.1z"/>
		<path class="st1" d="M269.8,635.9l3.6,8c4.2,9.3,14.5,14.2,24.3,11.5c6.1-1.7,12.6-0.7,18,2.6c5.1,3.2,11.7,1.9,15.2-3
			c3.5-4.9,2.5-11.6-2.1-15.3c-6-4.9-13.3-7.9-21-8.8c-4.4-0.5-8.4-2.7-11.2-6c-2.9-3.4-6.6-5.2-11-5.3c-4.4-0.1-8.3,1.4-11.3,4.6
			C271,627.7,268.2,632.3,269.8,635.9L269.8,635.9z"/>
		<path class="st1" d="M263.1,675.9c19.6,6,40,10.2,61,12.3c-0.2-7.9-4.4-15.4-11.5-19.5c-10.1-5.9-16.7-16.3-17.7-27.9
			c-0.5-6.2-4.6-11.6-10.5-13.6c-5.9-2.1-12.4-0.5-16.7,4s-5.6,11.1-3.2,16.9C268.1,657.3,267.5,667.5,263.1,675.9L263.1,675.9z
			 M404,686.7c26.4-3.8,51.8-10.8,75.7-20.6l-3.7-25.4c-11.7,1-23,6.2-31.4,15.7c-4.8,5.4-11.4,8.7-18.5,9.4
			c-8.4,0.8-15.8,5.8-19.7,13.3C405.3,681.6,404.4,684.1,404,686.7z"/>
		<path class="st1" d="M445.9,544.7l4.9,6.3c6.5,8.4,5,20.5-3.4,27c-8.7,6.8-11.5,18.8-6.5,28.7c2.7,5.5,1.7,12.1-2.6,16.4
			c-4.3,4.4-10.8,5.5-16.4,2.9c-5.5-2.6-8.8-8.4-8.1-14.5c0.8-7.4-2.5-14.6-8.7-18.8c-5-3.4-7.9-9.1-7.7-15.1s3.6-11.5,8.9-14.4
			L445.9,544.7L445.9,544.7z"/>
		<path class="st1" d="M252.1,533.1l-8.6,21.2c-5,11-7.9,22.7-8.9,34.5c6.3,2.7,13.5,1.9,19.1-2.2c6.6-4.8,15.8-3.4,20.7,3.1
			c4.9,6.6,12.6,10.4,20.9,10.5c5.7,0.1,11-2.7,14.3-7.4c3.2-4.7,3.9-10.6,1.9-15.9l-5.1-13.1l-25.4-22.1L252.1,533.1L252.1,533.1z"
			/>
		<g>
			<g>
				<g>
					<g>
						<path class="st1" d="M418.1,95.9c8,0,12.6,9.8,10.3,21.9s-10.5,21.9-18.5,21.9c-8,0-12.6-9.8-10.3-21.9S410.1,95.9,418.1,95.9
							z"/>
						<path class="st1" d="M416.7,103.4c5.3,0,8.3,6.5,6.8,14.5c-1.5,8-7,14.5-12.2,14.5s-8.3-6.5-6.8-14.5S411.5,103.4,416.7,103.4
							z"/>
					</g>
					<g>
						<path class="st1" d="M297.1,95.9c-8,0-12.6,9.8-10.3,21.9s10.5,21.9,18.5,21.9c8,0,12.6-9.8,10.3-21.9S305.1,95.9,297.1,95.9z
							"/>
						<path class="st1" d="M298.5,103.4c-5.3,0-8.3,6.5-6.8,14.5s7,14.5,12.2,14.5s8.3-6.5,6.8-14.5S303.8,103.4,298.5,103.4z"/>
					</g>
				</g>
				<path class="st1" d="M297.1,85.3l1.6,41.4l7.3-40.8L297.1,85.3L297.1,85.3z M418.1,85.3l-1.6,41.4l-7.3-40.8L418.1,85.3
					L418.1,85.3z"/>
				<path class="st1" d="M297.1,85.3l-1.3-35.2c-0.3-8.6,3.9-16.8,11.1-21.6C322.1,18.4,339.5,12,357.6,10
					c18.1,2,35.5,8.4,50.7,18.5c7.2,4.8,11.4,13,11.1,21.6l-1.3,35.2c-9.3,5.6-19.8,8.9-30.7,9.8l-29.9,2.4l-29.9-2.4
					C316.9,94.2,306.4,90.9,297.1,85.3z"/>
				<path class="st1" d="M296.7,74.6l-0.4-10.7c0.8-0.3,1.7-0.6,2.5-1.1c4.4-2.4,7-7.1,6.8-12.1c-0.3-8.4,5.7-15.7,14-17.1
					c8.3-1.4,16.3,3.5,18.9,11.5c1.6,5.2,0.2,10.8-3.8,14.5c-3.9,3.7-9.6,4.8-14.7,2.9c-3.5-1.3-7.5-0.4-10,2.4
					C306.1,69,301.6,72.3,296.7,74.6z"/>
				<path class="st1" d="M566.9,334.8l16.9,31.2c17.8,32.9,25.2,70.6,21,107.8L586,487.9c-48.4,36.2-109.2,51.8-169,43.5l7.3-30.5
					l37.7-18.1c15.2-21.5,27.6-40.4,53-49.3c-30.1-5.5-36.1-21.2-45.7-45.7L566.9,334.8L566.9,334.8z"/>
				<path class="st1" d="M604.8,473.8L586,487.9c-48.4,36.2-109.2,51.8-169,43.5l7.3-30.5l37.7-18.1c15.2-21.5,27.6-40.4,53-49.3
					c-30.1-5.5-36.1-21.2-45.7-45.7l75.8-41l6.2,10.1c-11.5,25.8-10.9,52,11.3,77.3C580.4,436.7,599.8,448.8,604.8,473.8z"/>
				<path class="st1" d="M369.2,41.7l-4.4,1.1c-3,0.7-6.1,0.3-8.8-1.1c-2.9-1.5-6.4-1.1-8.8,1.2c-2.4,2.2-3.1,5.7-1.8,8.7
					c1.6,3.6,5.7,5.4,9.4,4.1c1.7-0.6,3.7-0.4,5.3,0.5c1.6,0.9,2.8,2.4,3.2,4.3c0.8,3.7,3.9,6.4,7.6,6.9c3.7,0.4,7.3-1.5,9-4.9
					c1.9-3.9,5.8-6.6,10.2-7C395,55,399,51,399.6,46c0.6-5-2.5-9.8-7.3-11.4c-4.8-1.6-10.1,0.4-12.6,4.9c-1,1.8-2.7,3-4.8,3.5
					C372.9,43.4,370.4,41.4,369.2,41.7z"/>
				<path class="st1" d="M549.6,510.1c-40.8,20-87,27.6-132.6,21.3l7.3-30.5l37.7-18.1c7.8-11.1,14.9-21.4,23.4-30.1
					c-1.5,14.6,3.2,29.1,12.9,40c9.7,10.9,23.6,17.2,38.3,17.3L549.6,510.1L549.6,510.1z"/>
				<path class="st1" d="M514.9,433.5c-30.1-5.5-36.1-21.2-45.7-45.7l58.2-31.5l2.3,17.7C510.9,386.1,504.3,416.5,514.9,433.5z"/>
				
					<ellipse transform="matrix(0.9402 -0.3407 0.3407 0.9402 -100.612 221.4436)" class="st1" cx="580.2" cy="397.2" rx="9.4" ry="36.1"/>
				<path class="st1" d="M319.2,121.9l-5.8,55.1c-1.2,11.4-5.2,22.4-11.6,31.9l-35.9,32.7l91.8,54.4l91.8-54.4l-35.9-32.7
					c-6.4-9.5-10.4-20.5-11.6-31.9l-5.8-55.1l-38.4,9.1L319.2,121.9z"/>
				<path class="st1" d="M394.3,274.2l20.6-12.2l19.8-33.8l-21.3-19.3c-6.4-9.5-10.4-20.5-11.6-31.9l-0.1-1.1l-73.5,2.7l16.7,16.7
					c6.1,6.1,11.9,12.6,17.2,19.4c3.4,4.3,4.2,10.2,2,15.2c-2.2,5-7,8.5-12.5,8.9c-4,0.3-7.6,2.8-9.3,6.5c-1.7,3.7-1.4,8,1,11.3
					L394.3,274.2L394.3,274.2z"/>
				<path class="st1" d="M148.3,334.8L131.5,366c-17.8,32.9-25.2,70.6-21,107.8l18.9,14.1c48.4,36.2,109.2,51.8,169,43.5l-7.3-30.5
					l-37.7-18.1c-15.2-21.5-27.6-40.4-53-49.3c30.1-5.5,36.1-21.2,45.7-45.7L148.3,334.8L148.3,334.8z"/>
				<path class="st1" d="M110.4,473.8l18.9,14.1c48.4,36.2,109.2,51.8,169,43.5l-7.3-30.5l-37.7-18.1c-15.2-21.5-27.6-40.4-53-49.3
					c30.1-5.5,36.1-21.2,45.7-45.7l-75.8-41l-6.2,10.1c11.5,25.8,10.9,52-11.3,77.3C134.8,436.7,115.4,448.8,110.4,473.8
					L110.4,473.8z"/>
				<path class="st1" d="M165.7,510.1c40.8,20,87,27.6,132.6,21.3l-7.3-30.5l-37.7-18.1c-7.8-11.1-14.9-21.4-23.4-30.1
					c1.5,14.6-3.2,29.1-12.9,40c-9.7,10.9-23.6,17.2-38.3,17.3L165.7,510.1z"/>
				<path class="st1" d="M200.4,433.5c30.1-5.5,36.1-21.2,45.7-45.7l-58.2-31.5l-2.3,17.7C204.4,386.1,211,416.5,200.4,433.5z"/>
				<path class="st1" d="M232.2,366l-1.6,43.5c-1.1,30.1,6.2,60,21.3,87.1V530c0,68.8,211.4,68.8,211.4,0v-33.4
					c15.1-27,22.5-56.9,21.3-87.1L483,366l-125.4,18.9L232.2,366L232.2,366z"/>
				<path class="st1" d="M233.8,448.1c3.4,16.8,9.5,33.1,18.2,48.5c-1.4-4.7,0.7-9.8,5-12.1c4.3-2.4,9.7-1.4,12.9,2.3
					c2.8,3.3,7.4,4.6,11.5,3.2c4.1-1.3,7-5,7.4-9.4c0.8-10.1-3.4-19.9-11.2-26.4c-7.8-6.4-18.2-8.7-28-6
					C244.3,449.7,238.8,449.6,233.8,448.1L233.8,448.1z"/>
				<path class="st1" d="M260,435.7c30.4,16.8,67.2,16.8,97.6,0c30.4,16.8,67.2,16.8,97.6,0c16.7-9.2,28.6-25.2,32.6-43.9l4-5.5
					c29.4-3.1,55.7-19.7,71.1-45l4-6.5c-1.9-37.3-27.5-69.1-63.5-79.1l-10.5-2.9c-14.9-26.7-51.8-37.6-79.4-43.9
					c11.2,33.9-29.3,42.9-55.9,43.5c-26.5-0.7-67.1-9.7-55.9-43.5c-27.6,6.3-64.5,17.2-79.4,43.9l-10.5,2.9
					c-36,9.9-61.6,41.8-63.5,79.1l4,6.5c15.4,25.2,41.7,41.9,71.1,45l4,5.5C231.4,410.4,243.3,426.5,260,435.7z"/>
				<path class="st1" d="M190.6,264.8c-14,8.3-25.2,20.3-32.6,34.6c5.8,0.1,11.4-2.2,15.4-6.6c2.7-3,6.7-4.4,10.7-3.7
					c4,0.7,7.3,3.3,8.9,7c2.5,5.7,8.7,8.8,14.7,7.3l0.7-0.2c9.3-0.2,16.7-7.8,16.8-17.1c0-9.3-7.3-16.9-16.6-17.2
					C202.3,268.6,196.2,267.2,190.6,264.8z"/>
				<path class="st1" d="M545,281.5c-10.8-12.1-25.1-21.2-41.5-25.8l-10.5-2.9c-7-12.6-18.9-21.6-32.4-28.4c-2.3,3-3.8,6.7-4.3,10.5
					c-0.6,5.7,1,11.4,4.7,15.9c8.6,10.4,15.1,22.3,19.2,35.2c2.4,7.6,9.1,13.1,17.1,14.1c8,0.9,15.7-2.9,19.9-9.7
					C522.9,280.9,534.8,277.1,545,281.5z"/>
				<path class="st1" d="M148.3,334.8l4,6.5c15.4,25.2,41.7,41.9,71.1,45c-1.9-13.1-2.9-26.3-2.9-39.6v-11.6
					C198,362.8,167.6,354.1,148.3,334.8z"/>
				<path class="st1" d="M428.3,212.6c-5.1-1.4-10.1-2.6-14.8-3.7c11.2,33.9-29.3,42.9-55.9,43.5c-26.5-0.7-67.1-9.7-55.9-43.5
					c-4.7,1.1-9.7,2.3-14.8,3.7c-3.9,4.8-6,10.2-6,15.7c0,22.3,34.3,40.4,76.7,40.4c42.4,0,76.7-18.1,76.7-40.4
					C434.3,222.8,432.2,217.5,428.3,212.6L428.3,212.6z"/>
				
					<ellipse transform="matrix(0.3407 -0.9402 0.9402 0.3407 -284.4053 388.8167)" class="st1" cx="135" cy="397.2" rx="36.1" ry="9.4"/>
				<path class="st1" d="M566.9,334.8l-4,6.5c-15.4,25.2-41.7,41.9-71.1,45c1.9-13.1,2.9-26.3,2.9-39.6v-11.6
					C517.2,362.8,547.6,354.1,566.9,334.8z"/>
				<path class="st1" d="M409.8,89c5.5,27.4,9.7,55.1,12.6,82.9c-12.5,16.4-36.7,32.7-64.8,37c-28.1-4.3-52.3-20.6-64.8-37
					c2.9-27.8,7.1-55.5,12.6-82.9l52.2-14C357.6,75,409.8,89,409.8,89z"/>
				<path class="st1" d="M326.2,198.7c-14.2-7.2-25.9-17-33.4-26.8c1.2-11.8,2.7-23.6,4.4-35.3l11.7,15.2
					C319.4,165.4,325.4,181.7,326.2,198.7z"/>
				<path class="st1" d="M386.1,171.8c-5.5,7.2-16.1,14.4-28.4,16.3c-12.3-1.9-23-9-28.4-16.3H386.1L386.1,171.8z"/>
				<path class="st1" d="M252.1,304.1h22.3c4.9,0,9.3-2.7,11.6-7c5.1-9.6,16.2-14.4,26.6-11.6c9.6,2.6,19.1,5.3,28.6,8.1
					c6.7,2,10.5,9,8.5,15.7s-9,10.5-15.7,8.6c-8.8-2.6-18.2,2.1-21.5,10.6l-0.4,0.8c-4.1,8.2-11.7,14-20.7,15.8
					c-9,1.7-18.2-0.8-25.1-6.8c-5.8-5.1-12.9-8.5-20.5-9.8c-4.7-0.8-8.5-4.1-10-8.7c-1.4-4.5-0.2-9.5,3.2-12.8
					C242.6,303.7,247.6,304.1,252.1,304.1L252.1,304.1z"/>
				<path class="st1" d="M420.9,372.7l13.4-4c13-3.9,22.2-15.5,23-29c0.8-14-8.9-26.4-22.6-29c-10.5-2-20.7,4.7-23.1,15.1
					c-1.7,7.2-6.8,13.1-13.8,15.8c-9.8,3.7-20.4,5.2-30.8,4.2c-10.1-0.9-19.3,5.7-21.7,15.5s2.9,19.9,12.3,23.7
					c10.2,4.1,21.5,4.6,32.1,1.5C400.6,383.1,410.3,375.9,420.9,372.7L420.9,372.7z"/>
				<path class="st1" d="M392.6,362.7l5.5,1.9c4.4,1.6,9.2,1.1,13.3-1.1c6.3-3.5,13.8-4.2,20.6-1.9c6.8,2.3,12.4,7.4,15.2,14.1
					c2,4.6,0.6,10-3.2,13.1c-3.9,3.1-9.4,3.3-13.5,0.4c-6.6-4.7-15.5-4.4-21.8,0.8c-8.1,6.7-19.9,6-27.2-1.5
					c-4.5-4.6-7.4-10.6-8.4-17c-0.7-4.9,1.9-9.7,6.4-11.7C384,357.8,388.5,361.3,392.6,362.7L392.6,362.7z"/>
				<path class="st1" d="M271.4,403.7l16.7-3.5c3.6-0.8,7.4,0.5,9.8,3.4c5.3,6.4,14.4,8.2,21.8,4.4c6.7-3.5,13.5-7,20.1-10.6
					c4.7-2.5,6.4-8.4,3.9-13.1c-2.5-4.7-8.4-6.4-13.1-3.9c-6.2,3.3-13.9,1.4-17.8-4.5l-0.4-0.6c-4.3-5.5-11-8.6-18-8.5
					c-7,0.1-13.5,3.5-17.7,9.1c-3.5,4.7-8.3,8.4-13.8,10.6c-3.4,1.3-5.7,4.5-6.1,8.1c-0.3,3.6,1.4,7.1,4.4,9.1
					C264.3,405.5,268,404.4,271.4,403.7L271.4,403.7z"/>
				<path class="st1" d="M453.2,282.2l7.4,4c5.3,2.8,7.8,9,5.9,14.7c-1.8,5.7-7.5,9.3-13.4,8.5c-7.2-0.9-14.3,2.2-18.5,8.2
					c-3.1,4.4-8.5,6.7-13.8,5.9c-5.4-0.8-9.8-4.6-11.4-9.8c-1.8-5.7-4.9-11-9.1-15.3c-4.1-4.2-4.4-10.7-0.9-15.3
					c3.5-4.6,9.9-6,15-3.2c7.1,3.9,15.9,2.8,21.7-2.8c2.7-2.5,6.5-3.4,9.9-2.4C449.7,275.8,451.1,281,453.2,282.2L453.2,282.2z"/>
				<path class="st1" d="M265.3,266.9l9-1.1c6.8-0.8,13.6,2.1,17.7,7.6c4.2,5.7,11,8.9,18,8.6c5.4-0.2,10,4,10.4,9.4
					c0.3,5.4-3.7,10.1-9.1,10.6c-3.8,0.3-7.5-1.5-9.7-4.7c-5.8-8.6-17-11.7-26.4-7.2c-4.2,2-9.1,1.5-12.9-1.2
					c-3.7-2.7-5.7-7.3-5.1-11.9C257.9,272.4,260.8,267.4,265.3,266.9L265.3,266.9z"/>
				<path class="st1" d="M381.9,486.3l6.3,3.6c5,2.9,11,3.5,16.4,1.7c5.5-1.8,9.9-5.8,12.2-11.1c2.2-5,6.9-8.4,12.4-9
					c5.4-0.5,10.8,1.9,13.9,6.4c3.1,4.5,3.6,10.3,1.3,15.2c-3.6,7.6-2.7,16.6,2.5,23.2c3.4,4.3,3.2,10.5-0.5,14.6
					c-3.7,4.1-9.7,5-14.4,2.1c-8.5-5.3-19.3-5-27.5,0.6c-5,3.4-11.5,3.7-16.8,0.7c-5.3-3-8.4-8.7-8-14.8c0.3-4.8-2.3-9.4-6.5-11.6
					c-5.3-2.8-7.6-9.2-5.4-14.7C370.1,487.6,376.8,483.4,381.9,486.3z"/>
				<path class="st1" d="M364.3,522.1l5.5,1.9c4.4,1.6,9.2,1.1,13.3-1.1c6.3-3.5,13.8-4.2,20.6-1.9c6.8,2.3,12.4,7.4,15.2,14.1
					c2,4.6,0.6,10-3.2,13.1c-3.9,3.1-9.4,3.3-13.5,0.4c-6.6-4.7-15.5-4.4-21.8,0.8c-8.1,6.7-19.9,6-27.2-1.5
					c-4.5-4.6-7.4-10.6-8.4-17c-0.7-4.9,1.9-9.7,6.4-11.7C355.8,517.2,360.2,520.7,364.3,522.1L364.3,522.1z"/>
				<path class="st1" d="M321,493.1l1.5-4.9c1.5-5.1,0.1-10.7-3.7-14.5c-3.8-3.8-9.3-5.2-14.5-3.7c-5.1,1.5-9,5.7-10.2,10.9
					c-1.8,8.4-7.7,15.4-15.8,18.5c-7.6,2.9-11.4,11.4-8.5,19c2.9,7.6,11.3,11.5,18.9,8.7c6.5-2.4,13.2-4.5,19.8-6.3
					c5.7-1.6,10.3-5.6,12.7-11C323.7,504.6,319.7,497.2,321,493.1L321,493.1z"/>
				<path class="st1" d="M552.3,323.1l0.6-1.9c1.2-3.7,0.2-7.8-2.6-10.4c-2.8-2.7-6.9-3.5-10.5-2.1c-3,1.2-6.2,1.1-9.2-0.2
					c-4-1.8-8.7-0.8-11.8,2.4c-3,3.2-3.8,7.9-1.9,11.8c1.9,4,6.1,6.3,10.5,5.9c4.5-0.4,9,0.6,12.8,3c2.7,1.7,6.2,1.6,8.8-0.3
					C551.7,329.5,551.4,325.7,552.3,323.1L552.3,323.1z"/>
				<g>
					<g>
						<path class="st1" d="M376,99.3l22.3,2.6c5.2,0.6,9,5.1,8.8,10.2c-0.2,6.1-2.2,12-5.7,17c-3.9,5.5-10.5,8.4-17.2,7.5
							c-7.4-1-14.3-4.6-19.2-10.2c-3-3.4-4.5-7.9-4.1-12.5C361.9,101.8,364.6,97.9,376,99.3L376,99.3z"/>
						<path class="st1" d="M386,105.3c3.2,0.4,5.8,1.2,5.8,1.9s-2.6,0.9-5.8,0.5s-5.8-1.2-5.8-1.9S382.8,105,386,105.3z"/>
						<path class="st1" d="M376.1,104.4c1.4,0.2,2.6,0.6,2.6,0.9s-1.2,0.4-2.6,0.2c-1.4-0.2-2.6-0.6-2.6-0.9
							S374.7,104.2,376.1,104.4z"/>
					</g>
					<path class="st1" d="M339.3,99.3l-22.3,2.6c-5.2,0.6-9,5.1-8.8,10.2c0.2,6.1,2.2,12,5.7,17c3.9,5.5,10.5,8.4,17.2,7.5
						c7.4-1,14.3-4.6,19.2-10.2c3-3.4,4.5-7.9,4.1-12.5C353.4,101.8,350.7,97.9,339.3,99.3L339.3,99.3z"/>
					<g>
						<path class="st1" d="M335.4,103.7c-3.2,0.4-5.8,1.2-5.8,1.9s2.6,0.9,5.8,0.5c3.2-0.4,5.8-1.2,5.8-1.9S338.6,103.3,335.4,103.7
							z"/>
						<path class="st1" d="M325.3,105.7c-1.4,0.2-2.6,0.6-2.6,0.9s1.2,0.4,2.6,0.2c1.4-0.2,2.6-0.6,2.6-0.9S326.7,105.5,325.3,105.7
							z"/>
					</g>
				</g>
				<path class="st1" d="M297.1,85.3l11.4,6.4c6.2,3.5,13.6,3.7,20,0.6c9.1-4.4,19-7.1,29.1-7.8c10.1,0.7,20,3.4,29.1,7.8
					c6.4,3.1,13.8,2.8,20-0.6l11.4-6.4c-13.4-8.8-29-13.4-45-13.4h-15.5h-15.5C326.1,71.9,310.5,76.5,297.1,85.3L297.1,85.3z"/>
				<path class="st1" d="M362.6,126.6l1.8,13.2c0.3,2.1,1.6,3.9,3.5,4.8c1.8,0.8,2.8,2.7,2.6,4.7s-1.7,3.5-3.7,3.9
					c-1.6,0.3-3.1,0.9-4.4,1.7c-1.4,0.9-3.1,1.4-4.8,1.4c-1.7,0-3.4-0.5-4.8-1.4c-1.4-0.8-2.9-1.4-4.4-1.7c-1.9-0.4-3.4-1.9-3.7-3.9
					s0.8-3.9,2.6-4.7c1.9-0.9,3.2-2.7,3.5-4.8l1.8-13.2c0.4-2.7,2.8-5.6,5-6.2C359.8,121,362.2,123.9,362.6,126.6L362.6,126.6z"/>
				<path class="st1" d="M389,198.7c14.2-7.2,25.9-17,33.4-26.8c-1.2-11.8-2.7-23.6-4.4-35.3l-11.7,15.2
					C395.9,165.4,389.9,181.7,389,198.7z"/>
				<path class="st1" d="M339.1,20.7l-3.8,2c-2.5,1.3-5,2.5-7.6,3.6c-3.3,1.4-5.5,4.7-5.6,8.3c-0.1,3.6,1.9,7,5.2,8.6
					c3.2,1.6,7.1,1.2,10-1c2.7-2.1,5.6-3.9,8.6-5.4c1.8-0.9,3.1-2.4,3.7-4.4c0.5-1.9,0.2-4-0.9-5.6c-1-1.6-1.8-3.4-2.3-5.3
					c-0.4-1.6-1.7-2.8-3.3-2.9C341.3,18.4,340.2,20.1,339.1,20.7L339.1,20.7z"/>
				<path class="st1" d="M392.2,19.5c5.6,2.5,11,5.5,16.2,9c1.1,0.8,2.2,1.6,3.2,2.5c-0.4,0.7-0.8,1.4-1,2.2
					c-1.4,3.9-0.5,8.3,2.4,11.3c2.4,2.6,3.3,6.2,2.3,9.6c-1,3.4-3.8,5.9-7.2,6.7c-3.4,0.8-7-0.3-9.4-2.9c-3.8-4.1-9.5-5.7-14.9-4.1
					c-4.9,1.4-10.2-0.3-13.4-4.3c-3.2-4-3.6-9.5-1.1-14c2.5-4.5,7.4-7,12.5-6.4c4.1,0.5,8-1.7,9.7-5.5
					C391.9,22.3,392.2,20.9,392.2,19.5L392.2,19.5z"/>
			</g>
			<rect x="349.9" y="106.4" class="st1" width="15.4" height="4.9"/>
		</g>
		<path class="st1" d="M397.5,595.1l-7.2,5.1c-8.3,5.9-11.1,17-6.5,26.1c2.8,5.7,3.2,12.3,0.9,18.2c-2.1,5.6,0.4,11.8,5.9,14.3
			c5.4,2.5,11.8,0.2,14.6-5c3.6-6.9,5.2-14.6,4.5-22.3c-0.4-4.4,1-8.8,3.7-12.1c2.7-3.5,3.8-7.5,3.1-11.8c-0.7-4.4-3-7.8-6.7-10.2
			C405.7,594.7,400.7,592.9,397.5,595.1L397.5,595.1z"/>
	</g>
	<path class="st2" d="M244.5,533.1l-8.6,21.2c-11.2,24.8-12.3,53-3.3,78.7l-4.8,33.1C265.6,681.5,306.8,690,350,690
		c43.2,0,84.4-8.5,122.1-23.9l-4.8-33.1c9.1-25.7,7.9-53.9-3.3-78.7l-8.6-21.2L350,564.5L244.5,533.1L244.5,533.1z"/>
	<path class="st3" d="M262.2,635.9l3.6,8c4.2,9.3,14.5,14.2,24.3,11.5c6.1-1.7,12.6-0.7,18,2.6c5.1,3.2,11.7,1.9,15.2-3
		c3.5-4.9,2.5-11.6-2.1-15.3c-6-4.9-13.3-7.9-21-8.8c-4.4-0.5-8.4-2.7-11.2-6c-2.9-3.4-6.6-5.2-11-5.3c-4.4-0.1-8.3,1.4-11.3,4.6
		C263.3,627.7,260.6,632.3,262.2,635.9L262.2,635.9z"/>
	<path class="st4" d="M255.4,675.9c19.6,6,40,10.2,61,12.3c-0.2-7.9-4.4-15.4-11.5-19.5c-10.1-5.9-16.7-16.3-17.7-27.9
		c-0.5-6.2-4.6-11.6-10.5-13.6c-5.9-2.1-12.4-0.5-16.7,4c-4.3,4.5-5.6,11.1-3.2,16.9C260.5,657.3,259.9,667.5,255.4,675.9
		L255.4,675.9z M396.4,686.7c26.4-3.8,51.8-10.8,75.7-20.6l-3.7-25.4c-11.7,1-23,6.2-31.4,15.7c-4.8,5.4-11.4,8.7-18.5,9.4
		c-8.4,0.8-15.8,5.8-19.7,13.3C397.6,681.6,396.8,684.1,396.4,686.7z"/>
	<path class="st4" d="M438.3,544.7l4.9,6.3c6.5,8.4,5,20.5-3.4,27c-8.7,6.8-11.5,18.8-6.5,28.7c2.7,5.5,1.7,12.1-2.6,16.4
		c-4.3,4.4-10.8,5.5-16.4,2.9c-5.5-2.6-8.8-8.4-8.1-14.5c0.8-7.4-2.5-14.6-8.7-18.8c-5-3.4-7.9-9.1-7.7-15.1s3.6-11.5,8.9-14.4
		L438.3,544.7L438.3,544.7z"/>
	<path class="st4" d="M244.5,533.1l-8.6,21.2c-5,11-7.9,22.7-8.9,34.5c6.3,2.7,13.5,1.9,19.1-2.2c6.6-4.8,15.8-3.4,20.7,3.1
		c4.9,6.6,12.6,10.4,20.9,10.5c5.7,0.1,11-2.7,14.3-7.4c3.2-4.7,3.9-10.6,1.9-15.9l-5.1-13.1l-25.4-22.1L244.5,533.1L244.5,533.1z"
		/>
	<g>
		<g>
			<g>
				<g>
					<path class="st5" d="M410.5,95.9c8,0,12.6,9.8,10.3,21.9s-10.5,21.9-18.5,21.9s-12.6-9.8-10.3-21.9S402.5,95.9,410.5,95.9z"/>
					<path class="st6" d="M409.1,103.4c5.3,0,8.3,6.5,6.8,14.5s-7,14.5-12.2,14.5c-5.3,0-8.3-6.5-6.8-14.5
						C398.4,109.9,403.8,103.4,409.1,103.4z"/>
				</g>
				<g>
					<path class="st5" d="M289.5,95.9c-8,0-12.6,9.8-10.3,21.9s10.5,21.9,18.5,21.9s12.6-9.8,10.3-21.9S297.5,95.9,289.5,95.9z"/>
					<path class="st6" d="M290.9,103.4c-5.3,0-8.3,6.5-6.8,14.5s7,14.5,12.2,14.5c5.3,0,8.3-6.5,6.8-14.5
						C301.6,109.9,296.2,103.4,290.9,103.4z"/>
				</g>
			</g>
			<path class="st7" d="M289.5,85.3l1.6,41.4l7.3-40.8L289.5,85.3L289.5,85.3z M410.5,85.3l-1.6,41.4l-7.3-40.8L410.5,85.3
				L410.5,85.3z"/>
			<path class="st8" d="M289.5,85.3l-1.3-35.2c-0.3-8.6,3.9-16.8,11.1-21.6C314.5,18.4,331.9,12,350,10c18.1,2,35.5,8.4,50.7,18.5
				c7.2,4.8,11.4,13,11.1,21.6l-1.3,35.2c-9.3,5.6-19.8,8.9-30.7,9.8L350,97.4l-29.9-2.4C309.3,94.2,298.8,90.9,289.5,85.3z"/>
			<path class="st3" d="M289.1,74.6l-0.4-10.7c0.8-0.3,1.7-0.6,2.5-1.1c4.4-2.4,7-7.1,6.8-12.1c-0.3-8.4,5.7-15.7,14-17.1
				c8.3-1.4,16.3,3.5,18.9,11.5c1.6,5.2,0.2,10.8-3.8,14.5c-3.9,3.7-9.6,4.8-14.7,2.9c-3.5-1.3-7.5-0.4-10,2.4
				C298.5,69,294,72.3,289.1,74.6z"/>
			<path class="st9" d="M559.3,334.8l16.9,31.2c17.8,32.9,25.2,70.6,21,107.8l-18.9,14.1c-48.4,36.2-109.2,51.8-169,43.5l7.3-30.5
				l37.7-18.1c15.2-21.5,27.6-40.4,53-49.3c-30.1-5.5-36.1-21.2-45.7-45.7L559.3,334.8L559.3,334.8z"/>
			<path class="st10" d="M597.2,473.8l-18.9,14.1c-48.4,36.2-109.2,51.8-169,43.5l7.3-30.5l37.7-18.1c15.2-21.5,27.6-40.4,53-49.3
				c-30.1-5.5-36.1-21.2-45.7-45.7l75.8-41l6.2,10.1c-11.5,25.8-10.9,52,11.3,77.3C572.8,436.7,592.2,448.8,597.2,473.8z"/>
			<path class="st11" d="M361.5,41.7l-4.4,1.1c-3,0.7-6.1,0.3-8.8-1.1c-2.9-1.5-6.4-1.1-8.8,1.2c-2.4,2.2-3.1,5.7-1.8,8.7
				c1.6,3.6,5.7,5.4,9.4,4.1c1.7-0.6,3.7-0.4,5.3,0.5c1.6,0.9,2.8,2.4,3.2,4.3c0.8,3.7,3.9,6.4,7.6,6.9c3.7,0.4,7.3-1.5,9-4.9
				c1.9-3.9,5.8-6.6,10.2-7c5.1-0.5,9.1-4.4,9.7-9.4c0.6-5-2.5-9.8-7.3-11.4c-4.8-1.6-10.1,0.4-12.6,4.9c-1,1.8-2.7,3-4.8,3.5
				C365.3,43.4,362.8,41.4,361.5,41.7z"/>
			<path class="st5" d="M541.9,510.1c-40.8,20-87,27.6-132.6,21.3l7.3-30.5l37.7-18.1c7.8-11.1,14.9-21.4,23.4-30.1
				c-1.5,14.6,3.2,29.1,12.9,40c9.7,10.9,23.6,17.2,38.3,17.3L541.9,510.1z"/>
			<path class="st5" d="M507.2,433.5c-30.1-5.5-36.1-21.2-45.7-45.7l58.2-31.5l2.3,17.7C503.3,386.1,496.7,416.5,507.2,433.5z"/>
			
				<ellipse transform="matrix(0.9402 -0.3407 0.3407 0.9402 -101.0676 218.8489)" class="st12" cx="572.6" cy="397.2" rx="9.4" ry="36.1"/>
			<path class="st10" d="M311.6,121.9l-5.8,55.1c-1.2,11.4-5.2,22.4-11.6,31.9l-35.9,32.7L350,296l91.8-54.4l-35.9-32.7
				c-6.4-9.5-10.4-20.5-11.6-31.9l-5.8-55.1L350,131L311.6,121.9z"/>
			<path class="st5" d="M386.7,274.2l20.6-12.2l19.8-33.8l-21.3-19.3c-6.4-9.5-10.4-20.5-11.6-31.9l-0.1-1.1l-73.5,2.7l16.7,16.7
				c6.1,6.1,11.9,12.6,17.2,19.4c3.4,4.3,4.2,10.2,2,15.2c-2.2,5-7,8.5-12.5,8.9c-4,0.3-7.6,2.8-9.3,6.5c-1.7,3.7-1.4,8,1,11.3
				L386.7,274.2L386.7,274.2z"/>
			<path class="st9" d="M140.7,334.8L123.8,366c-17.8,32.9-25.2,70.6-21,107.8l18.9,14.1c48.4,36.2,109.2,51.8,169,43.5l-7.3-30.5
				l-37.7-18.1c-15.2-21.5-27.6-40.4-53-49.3c30.1-5.5,36.1-21.2,45.7-45.7L140.7,334.8L140.7,334.8z"/>
			<path class="st10" d="M102.8,473.8l18.9,14.1c48.4,36.2,109.2,51.8,169,43.5l-7.3-30.5l-37.7-18.1c-15.2-21.5-27.6-40.4-53-49.3
				c30.1-5.5,36.1-21.2,45.7-45.7l-75.8-41l-6.2,10.1c11.5,25.8,10.9,52-11.3,77.3C127.2,436.7,107.8,448.8,102.8,473.8L102.8,473.8
				z"/>
			<path class="st5" d="M158.1,510.1c40.8,20,87,27.6,132.6,21.3l-7.3-30.5l-37.7-18.1c-7.8-11.1-14.9-21.4-23.4-30.1
				c1.5,14.6-3.2,29.1-12.9,40c-9.7,10.9-23.6,17.2-38.3,17.3L158.1,510.1L158.1,510.1z"/>
			<path class="st5" d="M192.8,433.5c30.1-5.5,36.1-21.2,45.7-45.7l-58.2-31.5l-2.3,17.7C196.7,386.1,203.3,416.5,192.8,433.5z"/>
			<path class="st3" d="M224.6,366l-1.6,43.5c-1.1,30.1,6.2,60,21.3,87.1V530c0,68.8,211.4,68.8,211.4,0v-33.4
				c15.1-27,22.5-56.9,21.3-87.1l-1.6-43.5L350,384.9L224.6,366L224.6,366z"/>
			<path class="st2" d="M226.2,448.1c3.4,16.8,9.5,33.1,18.2,48.5c-1.4-4.7,0.7-9.8,5-12.1c4.3-2.4,9.7-1.4,12.9,2.3
				c2.8,3.3,7.4,4.6,11.5,3.2c4.1-1.3,7-5,7.4-9.4c0.8-10.1-3.4-19.9-11.2-26.4c-7.8-6.4-18.2-8.7-28-6
				C236.7,449.7,231.2,449.6,226.2,448.1L226.2,448.1z"/>
			<path class="st8" d="M252.4,435.7c30.4,16.8,67.2,16.8,97.6,0c30.4,16.8,67.2,16.8,97.6,0c16.7-9.2,28.6-25.2,32.6-43.9l4-5.5
				c29.4-3.1,55.7-19.7,71.1-45l4-6.5c-1.9-37.3-27.5-69.1-63.5-79.1l-10.5-2.9c-14.9-26.7-51.8-37.6-79.4-43.9
				c11.2,33.9-29.3,42.9-55.9,43.5c-26.5-0.7-67.1-9.7-55.9-43.5c-27.6,6.3-64.5,17.2-79.4,43.9l-10.5,2.9
				c-36,9.9-61.6,41.8-63.5,79.1l4,6.5c15.4,25.2,41.7,41.9,71.1,45l4,5.5C223.8,410.4,235.7,426.5,252.4,435.7z"/>
			<path class="st3" d="M183,264.8c-14,8.3-25.2,20.3-32.6,34.6c5.8,0.1,11.4-2.2,15.4-6.6c2.7-3,6.7-4.4,10.7-3.7
				c4,0.7,7.3,3.3,8.9,7c2.5,5.7,8.7,8.8,14.7,7.3l0.7-0.2c9.3-0.2,16.7-7.8,16.8-17.1c0-9.3-7.3-16.9-16.6-17.2
				C194.7,268.6,188.6,267.2,183,264.8z"/>
			<path class="st3" d="M537.3,281.5c-10.8-12.1-25.1-21.2-41.5-25.8l-10.5-2.9c-7-12.6-18.9-21.6-32.4-28.4
				c-2.3,3-3.8,6.7-4.3,10.5c-0.6,5.7,1,11.4,4.7,15.9c8.6,10.4,15.1,22.3,19.2,35.2c2.4,7.6,9.1,13.1,17.1,14.1
				c8,0.9,15.7-2.9,19.9-9.7C515.3,280.9,527.2,277.1,537.3,281.5z"/>
			<path class="st3" d="M140.7,334.8l4,6.5c15.4,25.2,41.7,41.9,71.1,45c-1.9-13.1-2.9-26.3-2.9-39.6v-11.6
				C190.4,362.8,160,354.1,140.7,334.8L140.7,334.8z"/>
			<path class="st3" d="M420.7,212.6c-5.1-1.4-10.1-2.6-14.8-3.7c11.2,33.9-29.3,42.9-55.9,43.5c-26.5-0.7-67.1-9.7-55.9-43.5
				c-4.7,1.1-9.7,2.3-14.8,3.7c-3.9,4.8-6,10.2-6,15.7c0,22.3,34.3,40.4,76.7,40.4s76.7-18.1,76.7-40.4
				C426.7,222.8,424.6,217.5,420.7,212.6L420.7,212.6z"/>
			
				<ellipse transform="matrix(0.3407 -0.9402 0.9402 0.3407 -289.4275 381.6548)" class="st12" cx="127.4" cy="397.2" rx="36.1" ry="9.4"/>
			<path class="st3" d="M559.3,334.8l-4,6.5c-15.4,25.2-41.7,41.9-71.1,45c1.9-13.1,2.9-26.3,2.9-39.6v-11.6
				C509.6,362.8,540,354.1,559.3,334.8z"/>
			<path class="st9" d="M402.2,89c5.5,27.4,9.7,55.1,12.6,82.9c-12.5,16.4-36.7,32.7-64.8,37c-28.1-4.3-52.3-20.6-64.8-37
				c2.9-27.8,7.1-55.5,12.6-82.9L350,75C350,75,402.2,89,402.2,89z"/>
			<path class="st10" d="M318.6,198.7c-14.2-7.2-25.9-17-33.4-26.8c1.2-11.8,2.7-23.6,4.4-35.3l11.7,15.2
				C311.8,165.4,317.8,181.7,318.6,198.7z"/>
			<path class="st1" d="M378.4,171.8C373,179,362.3,186.2,350,188c-12.3-1.9-23-9-28.4-16.3H378.4L378.4,171.8z"/>
			<path class="st3" d="M244.5,304.1h22.3c4.9,0,9.3-2.7,11.6-7c5.1-9.6,16.2-14.4,26.6-11.6c9.6,2.6,19.1,5.3,28.6,8.1
				c6.7,2,10.5,9,8.5,15.7c-2,6.7-9,10.5-15.7,8.6c-8.8-2.6-18.2,2.1-21.5,10.6l-0.4,0.8c-4.1,8.2-11.7,14-20.7,15.8
				c-9,1.7-18.2-0.8-25.1-6.8c-5.8-5.1-12.9-8.5-20.5-9.8c-4.7-0.8-8.5-4.1-10-8.7c-1.4-4.5-0.2-9.5,3.2-12.8
				C235,303.7,240,304.1,244.5,304.1L244.5,304.1z"/>
			<path class="st3" d="M413.3,372.7l13.4-4c13-3.9,22.2-15.5,23-29c0.8-14-8.9-26.4-22.6-29c-10.5-2-20.7,4.7-23.1,15.1
				c-1.7,7.2-6.8,13.1-13.8,15.8c-9.8,3.7-20.4,5.2-30.8,4.2c-10.1-0.9-19.3,5.7-21.7,15.5c-2.4,9.8,2.9,19.9,12.3,23.7
				c10.2,4.1,21.5,4.6,32.1,1.5C393,383.1,402.7,375.9,413.3,372.7L413.3,372.7z"/>
			<path class="st11" d="M384.9,362.7l5.5,1.9c4.4,1.6,9.2,1.1,13.3-1.1c6.3-3.5,13.8-4.2,20.6-1.9c6.8,2.3,12.4,7.4,15.2,14.1
				c2,4.6,0.6,10-3.2,13.1c-3.9,3.1-9.4,3.3-13.5,0.4c-6.6-4.7-15.5-4.4-21.8,0.8c-8.1,6.7-19.9,6-27.2-1.5
				c-4.5-4.6-7.4-10.6-8.4-17c-0.7-4.9,1.9-9.7,6.4-11.7C376.4,357.8,380.9,361.3,384.9,362.7L384.9,362.7z"/>
			<path class="st11" d="M263.8,403.7l16.7-3.5c3.6-0.8,7.4,0.5,9.8,3.4c5.3,6.4,14.4,8.2,21.8,4.4c6.7-3.5,13.5-7,20.1-10.6
				c4.7-2.5,6.4-8.4,3.9-13.1c-2.5-4.7-8.4-6.4-13.1-3.9c-6.2,3.3-13.9,1.4-17.8-4.5l-0.4-0.6c-4.3-5.5-11-8.6-18-8.5
				c-7,0.1-13.5,3.5-17.7,9.1c-3.5,4.7-8.3,8.4-13.8,10.6c-3.4,1.3-5.7,4.5-6.1,8.1c-0.3,3.6,1.4,7.1,4.4,9.1
				C256.7,405.5,260.4,404.4,263.8,403.7L263.8,403.7z"/>
			<path class="st11" d="M445.6,282.2l7.4,4c5.3,2.8,7.8,9,5.9,14.7c-1.8,5.7-7.5,9.3-13.4,8.5c-7.2-0.9-14.3,2.2-18.5,8.2
				c-3.1,4.4-8.5,6.7-13.8,5.9c-5.4-0.8-9.8-4.6-11.4-9.8c-1.8-5.7-4.9-11-9.1-15.3c-4.1-4.2-4.4-10.7-0.9-15.3
				c3.5-4.6,9.9-6,15-3.2c7.1,3.9,15.9,2.8,21.7-2.8c2.7-2.5,6.5-3.4,9.9-2.4C442.1,275.8,443.5,281,445.6,282.2L445.6,282.2z"/>
			<path class="st11" d="M257.7,266.9l9-1.1c6.8-0.8,13.6,2.1,17.7,7.6c4.2,5.7,11,8.9,18,8.6c5.4-0.2,10,4,10.4,9.4
				c0.3,5.4-3.7,10.1-9.1,10.6c-3.8,0.3-7.5-1.5-9.7-4.7c-5.8-8.6-17-11.7-26.4-7.2c-4.2,2-9.1,1.5-12.9-1.2
				c-3.7-2.7-5.7-7.3-5.1-11.9C250.2,272.4,253.2,267.4,257.7,266.9L257.7,266.9z"/>
			<path class="st2" d="M374.3,486.3l6.3,3.6c5,2.9,11,3.5,16.4,1.7c5.5-1.8,9.9-5.8,12.2-11.1c2.2-5,6.9-8.4,12.4-9
				c5.4-0.5,10.8,1.9,13.9,6.4c3.1,4.5,3.6,10.3,1.3,15.2c-3.6,7.6-2.7,16.6,2.5,23.2c3.4,4.3,3.2,10.5-0.5,14.6
				c-3.7,4.1-9.7,5-14.4,2.1c-8.5-5.3-19.3-5-27.5,0.6c-5,3.4-11.5,3.7-16.8,0.7c-5.3-3-8.4-8.7-8-14.8c0.3-4.8-2.3-9.4-6.5-11.6
				c-5.3-2.8-7.6-9.2-5.4-14.7C362.4,487.6,369.2,483.4,374.3,486.3z"/>
			<path class="st8" d="M356.7,522.1l5.5,1.9c4.4,1.6,9.2,1.1,13.3-1.1c6.3-3.5,13.8-4.2,20.6-1.9c6.8,2.3,12.4,7.4,15.2,14.1
				c2,4.6,0.6,10-3.2,13.1c-3.9,3.1-9.4,3.3-13.5,0.4c-6.6-4.7-15.5-4.4-21.8,0.8c-8.1,6.7-19.9,6-27.2-1.5
				c-4.5-4.6-7.4-10.6-8.4-17c-0.7-4.9,1.9-9.7,6.4-11.7C348.1,517.2,352.6,520.7,356.7,522.1L356.7,522.1z"/>
			<path class="st8" d="M313.3,493.1l1.5-4.9c1.5-5.1,0.1-10.7-3.7-14.5c-3.8-3.8-9.3-5.2-14.5-3.7s-9,5.7-10.2,10.9
				c-1.8,8.4-7.7,15.4-15.8,18.5c-7.6,2.9-11.4,11.4-8.5,19c2.9,7.6,11.3,11.5,18.9,8.7c6.5-2.4,13.2-4.5,19.8-6.3
				c5.7-1.6,10.3-5.6,12.7-11C316.1,504.6,312.1,497.2,313.3,493.1L313.3,493.1z"/>
			<path class="st11" d="M544.7,323.1l0.6-1.9c1.2-3.7,0.2-7.8-2.6-10.4c-2.8-2.7-6.9-3.5-10.5-2.1c-3,1.2-6.2,1.1-9.2-0.2
				c-4-1.8-8.7-0.8-11.8,2.4c-3,3.2-3.8,7.9-1.9,11.8c1.9,4,6.1,6.3,10.5,5.9c4.5-0.4,9,0.6,12.8,3c2.7,1.7,6.2,1.6,8.8-0.3
				C544,329.5,543.8,325.7,544.7,323.1L544.7,323.1z"/>
			<g>
				<g>
					<path class="st7" d="M368.4,99.3l22.3,2.6c5.2,0.6,9,5.1,8.8,10.2c-0.2,6.1-2.2,12-5.7,17c-3.9,5.5-10.5,8.4-17.2,7.5
						c-7.4-1-14.3-4.6-19.2-10.2c-3-3.4-4.5-7.9-4.1-12.5C354.3,101.8,356.9,97.9,368.4,99.3L368.4,99.3z"/>
					<path class="st1" d="M378.4,105.3c3.2,0.4,5.8,1.2,5.8,1.9s-2.6,0.9-5.8,0.5s-5.8-1.2-5.8-1.9S375.2,105,378.4,105.3z"/>
					<path class="st1" d="M368.5,104.4c1.4,0.2,2.6,0.6,2.6,0.9s-1.2,0.4-2.6,0.2c-1.4-0.2-2.6-0.6-2.6-0.9S367,104.2,368.5,104.4z"
						/>
				</g>
				<path class="st7" d="M331.6,99.3l-22.3,2.6c-5.2,0.6-9,5.1-8.8,10.2c0.2,6.1,2.2,12,5.7,17c3.9,5.5,10.5,8.4,17.2,7.5
					c7.4-1,14.3-4.6,19.2-10.2c3-3.4,4.5-7.9,4.1-12.5C345.7,101.8,343.1,97.9,331.6,99.3L331.6,99.3z"/>
				<g>
					<path class="st1" d="M327.7,103.7c-3.2,0.4-5.8,1.2-5.8,1.9s2.6,0.9,5.8,0.5c3.2-0.4,5.8-1.2,5.8-1.9S330.9,103.3,327.7,103.7z
						"/>
					<path class="st1" d="M317.6,105.7c-1.4,0.2-2.6,0.6-2.6,0.9s1.2,0.4,2.6,0.2c1.4-0.2,2.6-0.6,2.6-0.9S319.1,105.5,317.6,105.7z
						"/>
				</g>
			</g>
			<path class="st11" d="M289.5,85.3l11.4,6.4c6.2,3.5,13.6,3.7,20,0.6c9.1-4.4,19-7.1,29.1-7.8c10.1,0.7,20,3.4,29.1,7.8
				c6.4,3.1,13.8,2.8,20-0.6l11.4-6.4c-13.4-8.8-29-13.4-45-13.4H350h-15.5C318.5,71.9,302.9,76.5,289.5,85.3L289.5,85.3z"/>
			<path class="st5" d="M355,126.6l1.8,13.2c0.3,2.1,1.6,3.9,3.5,4.8c1.8,0.8,2.8,2.7,2.6,4.7c-0.2,2-1.7,3.5-3.7,3.9
				c-1.6,0.3-3.1,0.9-4.4,1.7c-1.4,0.9-3.1,1.4-4.8,1.4c-1.7,0-3.4-0.5-4.8-1.4c-1.4-0.8-2.9-1.4-4.4-1.7c-1.9-0.4-3.4-1.9-3.7-3.9
				c-0.2-2,0.8-3.9,2.6-4.7c1.9-0.9,3.2-2.7,3.5-4.8l1.8-13.2c0.4-2.7,2.8-5.6,5-6.2C352.1,121,354.6,123.9,355,126.6L355,126.6z"/>
			<path class="st10" d="M381.4,198.7c14.2-7.2,25.9-17,33.4-26.8c-1.2-11.8-2.7-23.6-4.4-35.3l-11.7,15.2
				C388.2,165.4,382.2,181.7,381.4,198.7z"/>
			<path class="st11" d="M331.4,20.7l-3.8,2c-2.5,1.3-5,2.5-7.6,3.6c-3.3,1.4-5.5,4.7-5.6,8.3c-0.1,3.6,1.9,7,5.2,8.6
				c3.2,1.6,7.1,1.2,10-1c2.7-2.1,5.6-3.9,8.6-5.4c1.8-0.9,3.1-2.4,3.7-4.4c0.5-1.9,0.2-4-0.9-5.6c-1-1.6-1.8-3.4-2.3-5.3
				c-0.4-1.6-1.7-2.8-3.3-2.9C333.7,18.4,332.6,20.1,331.4,20.7L331.4,20.7z"/>
			<path class="st3" d="M384.5,19.5c5.6,2.5,11,5.5,16.2,9c1.1,0.8,2.2,1.6,3.2,2.5c-0.4,0.7-0.8,1.4-1,2.2
				c-1.4,3.9-0.5,8.3,2.4,11.3c2.4,2.6,3.3,6.2,2.3,9.6c-1,3.4-3.8,5.9-7.2,6.7c-3.4,0.8-7-0.3-9.4-2.9c-3.8-4.1-9.5-5.7-14.9-4.1
				c-4.9,1.4-10.2-0.3-13.4-4.3s-3.6-9.5-1.1-14c2.5-4.5,7.4-7,12.5-6.4c4.1,0.5,8-1.7,9.7-5.5C384.3,22.3,384.6,20.9,384.5,19.5
				L384.5,19.5z"/>
		</g>
		<rect x="342.3" y="106.4" class="st7" width="15.4" height="4.9"/>
	</g>
	<path class="st3" d="M389.8,595.1l-7.2,5.1c-8.3,5.9-11.1,17-6.5,26.1c2.8,5.7,3.2,12.3,0.9,18.2c-2.1,5.6,0.4,11.8,5.9,14.3
		c5.4,2.5,11.8,0.2,14.6-5c3.6-6.9,5.2-14.6,4.5-22.3c-0.4-4.4,1-8.8,3.7-12.1c2.7-3.5,3.8-7.5,3.1-11.8c-0.7-4.4-3-7.8-6.7-10.2
		C398.1,594.7,393,592.9,389.8,595.1L389.8,595.1z"/>
</g>
</svg>
